# Blender v2.80 (sub 75) OBJ File: 'Bed Side Table.blend'
# www.blender.org
mtllib Bed Side Table.mtl
o Bed_Side_Table_Cube.001
v 1.772531 3.436844 -1.628547
v 1.772531 2.236962 -1.628546
v 1.580859 3.332746 1.628546
v 1.580859 2.341061 1.628547
v -1.772531 3.436844 -1.628547
v -1.772531 2.236962 -1.628546
v -1.580859 3.332746 1.628546
v -1.580859 2.341061 1.628547
v -1.772531 2.236963 1.628547
v -1.772531 3.436845 1.628546
v 1.772531 3.436845 1.628546
v 1.772531 2.236963 1.628547
v -1.580859 2.341061 -1.066317
v -1.580859 3.332746 -1.066317
v 1.580859 3.332746 -1.066317
v 1.580859 2.341061 -1.066317
v -1.772531 2.249147 1.606112
v -1.772531 3.424660 1.606111
v -1.772531 3.424659 -1.606112
v -1.772531 2.249147 -1.606111
v 1.772531 2.249147 -1.606111
v 1.772531 3.424659 -1.606112
v 1.772531 3.424660 1.606111
v 1.772531 2.249147 1.606112
v -1.750096 2.249147 -1.628546
v -1.750096 3.424659 -1.628547
v 1.750096 3.424659 -1.628547
v 1.750096 2.249147 -1.628546
v -1.750675 2.249147 1.606112
v -1.750675 3.424660 1.606111
v -1.750675 2.249147 -1.606111
v -1.750675 3.424659 -1.606112
v 1.750675 3.424659 -1.606112
v 1.750675 2.249147 -1.606111
v 1.750675 2.249147 1.606112
v 1.750675 3.424660 1.606111
v -1.750096 3.424659 -1.606691
v -1.750096 2.249147 -1.606690
v 1.750096 2.249147 -1.606690
v 1.750096 3.424659 -1.606691
vt 0.375000 0.000000
vt 0.625000 0.000000
vt 0.625000 0.250000
vt 0.375000 0.250000
vt 0.396689 0.263517
vt 0.603311 0.263517
vt 0.603311 0.263517
vt 0.396689 0.263517
vt 0.377539 0.501722
vt 0.622461 0.501722
vt 0.622461 0.501722
vt 0.377539 0.501722
vt 0.375000 0.750000
vt 0.625000 0.750000
vt 0.625000 1.000000
vt 0.375000 1.000000
vt 0.627539 0.748418
vt 0.627539 0.501582
vt 0.627539 0.501582
vt 0.627539 0.748418
vt 0.372461 0.501722
vt 0.372461 0.748278
vt 0.372461 0.748278
vt 0.372461 0.501722
vt 0.396689 0.486483
vt 0.603311 0.486483
vt 0.625000 0.500000
vt 0.375000 0.500000
vt 0.375000 0.250000
vt 0.625000 0.250000
vt 0.603311 0.486483
vt 0.396689 0.486483
vt 0.625000 0.750000
vt 0.622461 0.748278
vt 0.377539 0.748278
vt 0.125000 0.500000
vt 0.375000 0.500000
vt 0.127539 0.501722
vt 0.375000 0.750000
vt 0.125000 0.750000
vt 0.127539 0.748278
vt 0.625000 0.500000
vt 0.875000 0.500000
vt 0.872461 0.501582
vt 0.875000 0.750000
vt 0.872461 0.748418
vt 0.622461 0.748278
vt 0.377539 0.748278
vt 0.127539 0.501722
vt 0.127539 0.748278
vt 0.872461 0.501582
vt 0.872461 0.748418
vn 0.0000 1.0000 -0.0000
vn -1.0000 0.0000 0.0000
vn 0.0000 -0.0000 -1.0000
vn 0.0000 -1.0000 0.0000
vn 0.0000 0.0000 1.0000
vn 1.0000 0.0000 0.0000
usemtl Material.001
s 1
f 1/1/1 5/2/1 10/3/1 11/4/1
f 4/5/2 3/6/2 15/7/2 16/8/2
f 17/9/3 18/10/3 30/11/3 29/12/3
f 6/13/4 2/14/4 12/15/4 9/16/4
f 28/17/1 25/18/1 38/19/1 39/20/1
f 22/21/4 23/22/4 36/23/4 33/24/4
f 8/25/5 7/26/5 10/27/5 9/28/5
f 3/6/5 4/5/5 12/29/5 11/30/5
f 7/26/5 3/6/5 11/30/5 10/27/5
f 4/5/5 8/25/5 9/28/5 12/29/5
f 16/8/5 15/7/5 14/31/5 13/32/5
f 3/6/4 7/26/4 14/31/4 15/7/4
f 7/26/6 8/25/6 13/32/6 14/31/6
f 8/25/1 4/5/1 16/8/1 13/32/1
f 9/28/2 10/27/2 18/10/2 17/9/2
f 10/27/2 5/33/2 19/34/2 18/10/2
f 5/33/2 6/13/2 20/35/2 19/34/2
f 6/13/2 9/28/2 17/9/2 20/35/2
f 2/36/6 1/37/6 22/21/6 21/38/6
f 1/37/6 11/39/6 23/22/6 22/21/6
f 11/39/6 12/40/6 24/41/6 23/22/6
f 12/40/6 2/36/6 21/38/6 24/41/6
f 6/42/3 5/43/3 26/44/3 25/18/3
f 5/43/3 1/45/3 27/46/3 26/44/3
f 1/45/3 2/14/3 28/17/3 27/46/3
f 2/14/3 6/42/3 25/18/3 28/17/3
f 29/12/2 30/11/2 32/47/2 31/48/2
f 34/49/6 33/24/6 36/23/6 35/50/6
f 38/19/3 37/51/3 40/52/3 39/20/3
f 23/22/3 24/41/3 35/50/3 36/23/3
f 26/44/4 27/46/4 40/52/4 37/51/4
f 20/35/1 17/9/1 29/12/1 31/48/1
f 21/38/5 22/21/5 33/24/5 34/49/5
f 27/46/2 28/17/2 39/20/2 40/52/2
f 18/10/4 19/34/4 32/47/4 30/11/4
f 24/41/1 21/38/1 34/49/1 35/50/1
f 25/18/6 26/44/6 37/51/6 38/19/6
f 19/34/5 20/35/5 31/48/5 32/47/5
o Draw_Cube.002
v -1.458405 3.332746 -0.936824
v 1.458404 3.332746 -0.936826
v 1.458405 3.332746 1.513129
v -1.458405 3.332746 1.513130
v 1.458405 3.110261 1.513129
v 1.458404 3.110261 -0.936826
v -1.458405 3.110261 -0.936824
v -1.458405 3.110261 1.513130
v -0.000001 3.332746 -1.059279
v -0.000001 3.332746 -0.936825
v -0.000001 3.109875 -1.059279
v -0.000001 3.110261 -0.936825
v 0.514138 3.332746 1.635584
v -0.508181 3.332746 1.635584
v -0.500648 3.332746 1.513130
v 0.510810 3.332746 1.513129
v 1.458404 3.232894 -0.936826
v -1.458405 3.232894 -0.936824
v 1.458405 3.232894 1.513129
v -1.458405 3.232894 1.513130
v -0.000001 3.232894 -0.936825
v -0.000001 3.221311 -1.059279
v 1.580860 3.332746 1.629013
v 1.574289 3.332746 1.635583
v 1.576214 3.332746 1.630937
v 1.574289 3.109875 1.635583
v 1.580860 3.109875 1.629013
v 1.580860 3.221311 1.629013
v 1.574289 3.221075 1.635583
v -1.576710 3.332746 1.635585
v -1.580859 3.332746 1.631435
v -1.577925 3.332746 1.632651
v -1.580859 3.109875 1.631435
v -1.576710 3.109875 1.635585
v -1.580859 3.221311 1.631435
v -1.576710 3.221162 1.635585
v -1.580860 3.332746 -1.044998
v -1.566579 3.332746 -1.059279
v -1.570762 3.332746 -1.049181
v -1.566579 3.109875 -1.059279
v -1.580860 3.109875 -1.044998
v -1.566579 3.221311 -1.059279
v -1.580860 3.221311 -1.044998
v 1.576438 3.332746 -1.059280
v 1.580859 3.332746 -1.054860
v 1.577733 3.332746 -1.056154
v 1.580859 3.109875 -1.054860
v 1.576438 3.109875 -1.059280
v 1.576438 3.221311 -1.059280
v 1.580859 3.221311 -1.054860
v -0.000001 2.341061 -1.049114
v -0.000001 2.346581 -1.059279
v 0.000000 2.341061 1.625419
v 0.000000 2.346582 1.635584
v 1.570079 2.341061 1.625418
v 1.574289 2.346582 1.635583
v 1.570694 2.341061 1.624802
v 1.580860 2.346582 1.629013
v -1.570694 2.341061 1.627225
v -1.580859 2.346582 1.631435
v -1.572499 2.341061 1.625419
v -1.576710 2.346582 1.635585
v -1.562368 2.341061 -1.049114
v -1.566579 2.346581 -1.059279
v -1.570695 2.341061 -1.040787
v -1.580860 2.346581 -1.044998
v 1.570693 2.341061 -1.050649
v 1.580859 2.346581 -1.054860
v 1.572228 2.341061 -1.049115
v 1.576438 2.346581 -1.059280
v -1.453432 2.481823 -0.931851
v -1.458405 2.484524 -0.936824
v 1.458404 2.484524 -0.936826
v 1.453431 2.481823 -0.931852
v -1.453431 2.481823 1.508156
v -1.458405 2.484524 1.513130
v 1.458405 2.484524 1.513129
v 1.453432 2.481823 1.508155
v -0.000001 2.481823 -0.931851
v -0.000001 2.484524 -0.936825
v 0.000000 2.484524 1.513129
v 0.000000 2.481823 1.508156
v 1.458404 3.283295 -0.936826
v -1.458405 3.283295 -0.936824
v -0.000001 3.277558 -1.059279
v 1.458405 3.283295 1.513129
v -1.458405 3.283295 1.513130
v -0.000001 3.283295 -0.936825
v 1.574289 3.277442 1.635583
v 1.580860 3.277558 1.629013
v -1.576710 3.277485 1.635585
v -1.580859 3.277558 1.631435
v -1.580860 3.277558 -1.044998
v -1.566579 3.277558 -1.059279
v 1.580859 3.277558 -1.054860
v 1.576438 3.277558 -1.059280
v -0.093457 3.133395 1.635584
v 0.093649 3.133170 1.635584
v 0.103003 3.109875 1.635584
v 0.000000 3.053934 1.635584
v -0.103003 3.109875 1.635584
v -0.079203 3.130285 1.635584
v -0.063334 3.127712 1.635584
v -0.046171 3.125730 1.635584
v -0.028064 3.124377 1.635584
v -0.009382 3.123683 1.635584
v 0.009495 3.123660 1.635584
v 0.028183 3.124310 1.635584
v 0.046300 3.125618 1.635584
v 0.063479 3.127560 1.635584
v 0.079370 3.130094 1.635584
v 0.096366 3.130017 1.513129
v -0.096120 3.130367 1.513130
v -0.103003 3.110261 1.513130
v 0.000000 3.054320 1.513129
v 0.103003 3.110261 1.513129
v 0.081674 3.127410 1.513129
v 0.065323 3.125266 1.513129
v 0.047648 3.123627 1.513129
v 0.029008 3.122528 1.513129
v 0.009783 3.121991 1.513129
v -0.009637 3.122026 1.513129
v -0.028856 3.122633 1.513129
v -0.047482 3.123800 1.513129
v -0.065136 3.125503 1.513129
v -0.081460 3.127707 1.513130
v -0.153830 3.142438 1.513130
v -0.323677 3.202417 1.510769
v -0.352741 3.168580 1.513130
v -0.168309 3.145716 1.513106
v -0.183987 3.149737 1.513034
v -0.200544 3.154419 1.512916
v -0.217643 3.159668 1.512755
v -0.234937 3.165376 1.512553
v -0.252072 3.171427 1.512315
v -0.268701 3.177698 1.512045
v -0.284485 3.184062 1.511750
v -0.299102 3.190388 1.511434
v -0.312256 3.196548 1.511105
v -0.330665 3.212266 1.638012
v -0.160188 3.150189 1.635584
v -0.356870 3.177499 1.635584
v -0.318811 3.206554 1.637666
v -0.305288 3.200478 1.637328
v -0.290369 3.194160 1.637003
v -0.274359 3.187730 1.636699
v -0.257583 3.181318 1.636422
v -0.240384 3.175055 1.636177
v -0.223111 3.169068 1.635969
v -0.206116 3.163480 1.635803
v -0.189745 3.158404 1.635682
v -0.174331 3.153943 1.635609
v 0.329272 3.202023 1.510792
v 0.158794 3.142816 1.513129
v 0.357818 3.168605 1.513129
v 0.317777 3.196214 1.511125
v 0.304548 3.190120 1.511451
v 0.289856 3.183865 1.511763
v 0.274000 3.177577 1.512056
v 0.257302 3.171383 1.512323
v 0.240103 3.165410 1.512558
v 0.222752 3.159779 1.512758
v 0.205603 3.154604 1.512918
v 0.189005 3.149992 1.513035
v 0.173295 3.146036 1.513106
v 0.163110 3.150448 1.635584
v 0.333790 3.212013 1.637996
v 0.359848 3.177508 1.635584
v 0.177263 3.154163 1.635609
v 0.192689 3.158580 1.635682
v 0.209075 3.163609 1.635802
v 0.226087 3.169147 1.635967
v 0.243379 3.175082 1.636173
v 0.260599 3.181293 1.636417
v 0.277396 3.187654 1.636692
v 0.293428 3.194035 1.636994
v 0.308369 3.200306 1.637316
v 0.321915 3.206340 1.637653
v -0.335158 3.208645 1.510399
v -0.461196 3.296698 1.510962
v -0.510994 3.251692 1.508546
v -0.346090 3.214776 1.510094
v -0.357879 3.221769 1.509855
v -0.370285 3.229480 1.509686
v -0.383055 3.237753 1.509591
v -0.395929 3.246420 1.509572
v -0.408644 3.255303 1.509628
v -0.420943 3.264223 1.509760
v -0.432575 3.272997 1.509964
v -0.443303 3.281448 1.510236
v -0.452908 3.289402 1.510571
v 0.342423 3.216311 1.638268
v 0.475502 3.300986 1.637640
v 0.521606 3.256333 1.640212
v 0.353853 3.222188 1.638578
v 0.366208 3.228897 1.638820
v 0.379234 3.236301 1.638990
v 0.392669 3.244249 1.639083
v 0.406237 3.252579 1.639099
v 0.419663 3.261121 1.639035
v 0.432674 3.269703 1.638895
v 0.445004 3.278149 1.638680
v 0.456403 3.286286 1.638395
v 0.466639 3.293951 1.638046
v -0.470527 3.301262 1.637623
v -0.338218 3.216059 1.638252
v -0.517255 3.256325 1.640215
v -0.461754 3.294186 1.638031
v -0.451610 3.286475 1.638382
v -0.440301 3.278288 1.638668
v -0.428059 3.269790 1.638884
v -0.415132 3.261155 1.639025
v -0.401784 3.252559 1.639089
v -0.388286 3.244177 1.639073
v -0.374912 3.236178 1.638979
v -0.361936 3.228727 1.638808
v -0.349621 3.221975 1.638564
v 0.469887 3.296295 1.510937
v 0.342400 3.209025 1.510377
v 0.518768 3.251718 1.508550
v 0.461464 3.289060 1.510550
v 0.451715 3.281173 1.510218
v 0.440838 3.272796 1.509948
v 0.429056 3.264098 1.509745
v 0.416606 3.255257 1.509614
v 0.403744 3.246452 1.509558
v 0.390731 3.237864 1.509577
v 0.377832 3.229666 1.509671
v 0.365309 3.222025 1.509838
v 0.353418 3.215098 1.510075
vt 0.397840 0.486020
vt 0.556875 0.486020
vt 0.556875 0.486483
vt 0.397840 0.486483
vt 0.603311 0.486156
vt 0.603311 0.485897
vt 0.603311 0.391295
vt 0.603311 0.391060
vt 0.603311 0.477848
vt 0.603311 0.367736
vt 0.603311 0.371794
vt 0.603311 0.369869
vt 0.603311 0.358639
vt 0.603311 0.272152
vt 0.603311 0.272152
vt 0.565790 0.375000
vt 0.603311 0.357866
vt 0.603311 0.357936
vt 0.571143 0.375000
vt 0.397623 0.288572
vt 0.397623 0.313626
vt 0.500000 0.313626
vt 0.500000 0.288572
vt 0.396689 0.375000
vt 0.396689 0.264821
vt 0.396689 0.264234
vt 0.396689 0.264234
vt 0.396689 0.264106
vt 0.396689 0.375000
vt 0.603311 0.486263
vt 0.603311 0.486483
vt 0.603311 0.486483
vt 0.603311 0.477848
vt 0.591812 0.263860
vt 0.603311 0.263881
vt 0.603311 0.357769
vt 0.598698 0.359480
vt 0.591812 0.353342
vt 0.603311 0.358300
vt 0.603311 0.263724
vt 0.603311 0.272152
vt 0.603311 0.477848
vt 0.603311 0.477848
vt 0.603311 0.477848
vt 0.603311 0.477848
vt 0.603311 0.375000
vt 0.603311 0.477497
vt 0.603311 0.477497
vt 0.603311 0.375000
vt 0.585538 0.375000
vt 0.603311 0.358098
vt 0.603311 0.358105
vt 0.586391 0.375000
vt 0.603311 0.272152
vt 0.603311 0.375000
vt 0.603311 0.375000
vt 0.603311 0.272152
vt 0.580093 0.486483
vt 0.556875 0.486483
vt 0.580093 0.486483
vt 0.397840 0.375000
vt 0.545219 0.375000
vt 0.556875 0.382264
vt 0.556875 0.263809
vt 0.397840 0.263809
vt 0.397840 0.263517
vt 0.556875 0.263517
vt 0.603311 0.272152
vt 0.603311 0.375000
vt 0.603311 0.477848
vt 0.603311 0.477848
vt 0.603311 0.375000
vt 0.603311 0.272152
vt 0.603311 0.375000
vt 0.556875 0.263517
vt 0.397840 0.263517
vt 0.397840 0.263517
vt 0.556875 0.263517
vt 0.580093 0.263517
vt 0.580093 0.263517
vt 0.397623 0.275925
vt 0.500000 0.275925
vt 0.500000 0.485242
vt 0.603022 0.485242
vt 0.603022 0.313626
vt 0.603311 0.391102
vt 0.603311 0.379993
vt 0.603311 0.378030
vt 0.603311 0.382264
vt 0.396689 0.485766
vt 0.396689 0.485875
vt 0.396689 0.485723
vt 0.396689 0.485766
vt 0.603311 0.391295
vt 0.556875 0.375000
vt 0.561528 0.375000
vt 0.603311 0.391270
vt 0.603311 0.389344
vt 0.603311 0.396034
vt 0.603311 0.477848
vt 0.603311 0.353597
vt 0.603311 0.360064
vt 0.603311 0.272152
vt 0.565333 0.377968
vt 0.571607 0.380170
vt 0.580093 0.391170
vt 0.580093 0.485970
vt 0.585656 0.385100
vt 0.586283 0.385319
vt 0.591812 0.396049
vt 0.591812 0.485933
vt 0.603311 0.391133
vt 0.588579 0.375000
vt 0.594853 0.375000
vt 0.603311 0.391104
vt 0.591812 0.263517
vt 0.603311 0.263517
vt 0.603311 0.263517
vt 0.591812 0.263517
vt 0.603311 0.391210
vt 0.573903 0.375000
vt 0.574529 0.375000
vt 0.603311 0.391205
vt 0.603311 0.272152
vt 0.603311 0.375000
vt 0.603311 0.477848
vt 0.591812 0.486483
vt 0.591812 0.486483
vt 0.603311 0.375000
vt 0.603311 0.486171
vt 0.603311 0.375000
vt 0.556875 0.367736
vt 0.603311 0.486483
vt 0.397840 0.486483
vt 0.603022 0.288571
vt 0.580093 0.263839
vt 0.603311 0.264229
vt 0.603311 0.264524
vt 0.603311 0.272152
vt 0.603311 0.264020
vt 0.556875 0.486483
vt 0.397840 0.486483
vt 0.580093 0.263517
vt 0.591812 0.263517
vt 0.603311 0.486327
vt 0.603311 0.486483
vt 0.591812 0.486483
vt 0.580093 0.486483
vt 0.603022 0.275925
vt 0.396689 0.375000
vt 0.396689 0.264524
vt 0.396689 0.486171
vt 0.397623 0.485242
vt 0.603311 0.272503
vt 0.603311 0.272503
vt 0.500000 0.263517
vt 0.603022 0.263517
vt 0.603311 0.263517
vt 0.598657 0.389662
vt 0.603311 0.364691
vt 0.603311 0.364385
vt 0.603311 0.385226
vt 0.603311 0.384895
vt 0.586246 0.364101
vt 0.585693 0.364306
vt 0.580093 0.358416
vt 0.397623 0.263517
vt 0.598405 0.375000
vt 0.603311 0.358247
vt 0.603311 0.358300
vt 0.603311 0.375000
vt 0.603328 0.357844
vt 0.603380 0.357806
vt 0.603468 0.357752
vt 0.603594 0.357683
vt 0.603311 0.357787
vt 0.603311 0.357771
vt 0.603252 0.357790
vt 0.603247 0.357792
vt 0.603239 0.357795
vt 0.603229 0.357799
vt 0.603216 0.357804
vt 0.603311 0.357769
vt 0.603311 0.357769
vt 0.603311 0.357857
vt 0.603307 0.391091
vt 0.603299 0.391064
vt 0.603287 0.391024
vt 0.603276 0.390972
vt 0.603311 0.391067
vt 0.603311 0.391060
vt 0.603311 0.391060
vt 0.603311 0.391060
vt 0.603311 0.391060
vt 0.603311 0.391060
vt 0.603311 0.391060
vt 0.603311 0.391060
vt 0.603311 0.390982
vt 0.603311 0.391102
vt 0.572501 0.375000
vt 0.581013 0.374327
vt 0.574007 0.374997
vt 0.575625 0.374993
vt 0.577323 0.374988
vt 0.579008 0.375000
vt 0.580455 0.374735
vt 0.580858 0.374441
vt 0.581257 0.374150
vt 0.581642 0.373868
vt 0.582008 0.373600
vt 0.582346 0.373353
vt 0.603317 0.358083
vt 0.603311 0.358083
vt 0.603335 0.358055
vt 0.603368 0.358015
vt 0.603415 0.357963
vt 0.603311 0.358041
vt 0.603311 0.358034
vt 0.602935 0.358309
vt 0.602489 0.358635
vt 0.602084 0.358931
vt 0.601728 0.359190
vt 0.601429 0.359409
vt 0.603311 0.384568
vt 0.603311 0.384124
vt 0.603311 0.383573
vt 0.603311 0.382924
vt 0.603311 0.383258
vt 0.603311 0.383030
vt 0.603311 0.383030
vt 0.603311 0.383030
vt 0.603311 0.383030
vt 0.603311 0.383030
vt 0.603311 0.383030
vt 0.572956 0.380587
vt 0.574561 0.380984
vt 0.576389 0.381353
vt 0.578402 0.381686
vt 0.579150 0.382817
vt 0.580093 0.383492
vt 0.580093 0.384858
vt 0.580093 0.386164
vt 0.580093 0.387385
vt 0.580093 0.388495
vt 0.580093 0.389471
vt 0.587224 0.374991
vt 0.592309 0.374273
vt 0.588164 0.374964
vt 0.589189 0.374920
vt 0.590275 0.374860
vt 0.591229 0.375000
vt 0.592043 0.374663
vt 0.592220 0.374402
vt 0.592400 0.374139
vt 0.592578 0.373880
vt 0.592749 0.373628
vt 0.592912 0.373390
vt 0.587141 0.385589
vt 0.588124 0.385839
vt 0.589211 0.386065
vt 0.590382 0.386263
vt 0.591208 0.387048
vt 0.591812 0.387385
vt 0.591812 0.388544
vt 0.591812 0.389644
vt 0.591812 0.390663
vt 0.591812 0.391581
vt 0.591812 0.392377
vt 0.603308 0.358243
vt 0.603311 0.358213
vt 0.603299 0.358253
vt 0.603283 0.358277
vt 0.603256 0.358315
vt 0.603311 0.358177
vt 0.603103 0.358472
vt 0.602937 0.358715
vt 0.602771 0.358959
vt 0.602606 0.359200
vt 0.602447 0.359433
vt 0.602297 0.359653
vt 0.603311 0.388977
vt 0.603311 0.388526
vt 0.603311 0.387999
vt 0.603311 0.387409
vt 0.603311 0.387331
vt 0.603311 0.387083
vt 0.603311 0.387083
vt 0.603311 0.387083
vt 0.603311 0.387083
vt 0.603311 0.387083
vt 0.603311 0.387083
vt 0.596111 0.374992
vt 0.597453 0.374970
vt 0.598856 0.374933
vt 0.600291 0.374882
vt 0.601732 0.374818
vt 0.603266 0.390909
vt 0.603311 0.375019
vt 0.558768 0.374839
vt 0.603754 0.357602
vt 0.560195 0.374895
vt 0.561642 0.374940
vt 0.563077 0.374973
vt 0.564470 0.374993
vt 0.603311 0.391140
vt 0.587284 0.374994
vt 0.603307 0.391144
vt 0.585838 0.374975
vt 0.603303 0.391147
vt 0.584269 0.374944
vt 0.603295 0.391149
vt 0.582608 0.374902
vt 0.603286 0.391150
vt 0.580887 0.374849
vt 0.603255 0.391146
vt 0.579212 0.374851
vt 0.603274 0.391163
vt 0.578210 0.374903
vt 0.603290 0.391178
vt 0.577222 0.374945
vt 0.603301 0.391190
vt 0.576267 0.374975
vt 0.603308 0.391199
vt 0.575363 0.374994
vt 0.584712 0.375000
vt 0.583804 0.374998
vt 0.582830 0.374994
vt 0.581810 0.374990
vt 0.580767 0.374985
vt 0.603476 0.357901
vt 0.579067 0.374982
vt 0.603564 0.357867
vt 0.603480 0.357902
vt 0.603410 0.357927
vt 0.603357 0.357941
vt 0.603323 0.357944
vt 0.603294 0.391205
vt 0.573069 0.375004
vt 0.603244 0.391182
vt 0.572160 0.375017
vt 0.603158 0.391143
vt 0.571193 0.375038
vt 0.603038 0.391088
vt 0.570191 0.375067
vt 0.602884 0.391018
vt 0.569173 0.375103
vt 0.602943 0.391081
vt 0.568001 0.375160
vt 0.603066 0.391143
vt 0.566529 0.375105
vt 0.603168 0.391194
vt 0.565115 0.375060
vt 0.603245 0.391232
vt 0.563792 0.375027
vt 0.603294 0.391258
vt 0.562587 0.375007
vt 0.597403 0.374994
vt 0.596298 0.374976
vt 0.595111 0.374946
vt 0.593869 0.374905
vt 0.592598 0.374855
vt 0.603219 0.358364
vt 0.591398 0.374786
vt 0.603213 0.358281
vt 0.603244 0.358227
vt 0.603271 0.358181
vt 0.603292 0.358145
vt 0.603306 0.358119
vt 0.571512 0.369568
vt 0.565415 0.371831
vn -0.7071 0.0000 -0.7071
vn 0.0000 -1.0000 0.0000
vn 0.0000 0.0000 1.0000
vn -0.2258 -0.9734 0.0394
vn -0.0000 1.0000 -0.0000
vn 0.0019 -0.0358 -0.9994
vn 0.0018 -0.0537 -0.9986
vn -0.0021 -0.0453 -0.9990
vn 0.0000 -1.0000 -0.0001
vn 1.0000 -0.0000 -0.0000
vn -0.4657 -0.8840 0.0415
vn -0.4650 -0.8843 0.0424
vn -0.4752 -0.8791 0.0369
vn -0.0000 0.0000 -1.0000
vn -1.0000 0.0000 0.0000
vn 0.7071 0.0000 -0.7071
vn 0.7071 0.0000 0.7071
vn -0.0020 0.0127 0.9999
vn -0.0005 0.0071 1.0000
vn 0.6509 -0.7591 -0.0091
vn -0.0019 -0.0358 0.9994
vn -0.0014 -0.0504 0.9987
vn 0.0018 -0.0432 0.9991
vn -0.0051 -0.0417 0.9991
vn 0.0013 -0.0504 0.9987
vn 0.0019 -0.0358 0.9994
vn -0.0004 0.0057 -1.0000
vn -0.0010 0.0054 -1.0000
vn -0.0032 0.0395 -0.9992
vn -0.0006 0.0460 -0.9989
vn -0.0017 0.0457 -0.9990
vn 0.2221 -0.9741 0.0414
vn 0.4703 -0.8812 0.0475
vn 0.4597 -0.8865 0.0528
vn 0.4605 -0.8861 0.0518
vn -0.7071 0.0000 0.7071
vn -0.3375 0.8788 -0.3375
vn -0.0000 0.8788 -0.4773
vn 0.3374 0.8788 -0.3374
vn 0.3375 0.8788 0.3375
vn 0.0000 0.8788 0.4773
vn 0.4773 0.8788 -0.0000
vn -0.3375 0.8788 0.3374
vn -0.4773 0.8788 0.0000
vn -0.0000 -0.8788 -0.4773
vn -0.4773 -0.8788 0.0000
vn 0.4773 -0.8788 -0.0000
vn 0.0000 -0.8788 0.4773
vn 0.0084 -0.0408 -0.9991
vn -0.0018 -0.0537 -0.9986
vn -0.0019 -0.0358 -0.9994
vn 0.0070 0.0545 0.9985
vn 0.0025 0.0618 0.9981
vn 0.0019 0.0463 0.9989
vn 0.0028 0.0461 0.9989
vn 0.0041 0.0407 0.9992
vn -0.0042 0.0408 0.9992
vn -0.0029 0.0462 0.9989
vn -0.0020 0.0465 0.9989
vn -0.0025 0.0619 0.9981
vn -0.0055 0.0534 0.9986
vn 0.0032 0.0394 -0.9992
vn 0.0016 0.0456 -0.9990
vn 0.0005 0.0459 -0.9989
vn -0.6586 -0.7519 -0.0308
vn 0.0023 0.0174 0.9998
vn 0.0027 0.0247 0.9997
vn 0.0046 0.0393 0.9992
vn 0.0055 0.0471 0.9989
vn 0.0060 0.0523 0.9986
vn 0.0062 0.0558 0.9984
vn 0.0063 0.0584 0.9983
vn 0.0061 0.0606 0.9981
vn 0.0058 0.0624 0.9980
vn 0.0057 0.0636 0.9980
vn 0.0050 0.0650 0.9979
vn 0.0033 0.0672 -0.9977
vn 0.0041 0.0662 -0.9978
vn 0.0054 0.0619 -0.9981
vn 0.0051 0.0643 -0.9979
vn 0.0052 0.0627 -0.9980
vn 0.0057 0.0603 -0.9982
vn 0.0060 0.0575 -0.9983
vn 0.0063 0.0563 -0.9984
vn 0.0062 0.0525 -0.9986
vn 0.0057 0.0496 -0.9988
vn 0.0052 0.0410 -0.9991
vn 0.0052 0.0435 -0.9990
vn 0.0041 0.0349 -0.9994
vn 0.0041 0.0306 -0.9995
vn 0.0019 0.0137 -0.9999
vn 0.0004 0.0057 -1.0000
vn 0.0010 0.0054 -1.0000
vn -0.0050 0.0652 0.9979
vn -0.0057 0.0638 0.9979
vn -0.0059 0.0625 0.9980
vn -0.0061 0.0609 0.9981
vn -0.0062 0.0588 0.9983
vn -0.0062 0.0562 0.9984
vn -0.0060 0.0526 0.9986
vn -0.0055 0.0475 0.9989
vn -0.0055 0.0452 0.9990
vn -0.0045 0.0358 0.9993
vn -0.0027 0.0251 0.9997
vn -0.0019 0.0139 -0.9999
vn -0.0041 0.0308 -0.9995
vn -0.0041 0.0349 -0.9994
vn -0.0044 0.0339 -0.9994
vn -0.0052 0.0409 -0.9992
vn -0.0058 0.0477 -0.9988
vn -0.0057 0.0498 -0.9987
vn -0.0055 0.0594 -0.9982
vn -0.0059 0.0542 -0.9985
vn -0.0059 0.0576 -0.9983
vn -0.0058 0.0603 -0.9982
vn -0.0053 0.0627 -0.9980
vn -0.0051 0.0644 -0.9979
vn -0.0041 0.0662 -0.9978
vn -0.0033 0.0673 -0.9977
vn 0.0029 0.0548 0.9985
vn -0.0028 0.0296 0.9996
vn -0.0062 0.0119 0.9999
vn -0.0064 0.0058 1.0000
vn -0.0067 0.0081 0.9999
vn -0.0083 -0.0013 1.0000
vn -0.0095 -0.0118 0.9999
vn -0.0090 -0.0159 0.9998
vn -0.0093 -0.0178 0.9998
vn -0.0090 -0.0240 0.9997
vn -0.0096 -0.0280 0.9996
vn -0.0086 -0.0347 0.9994
vn -0.0068 -0.0379 0.9993
vn -0.0060 -0.0431 0.9991
vn -0.0050 -0.0487 0.9988
vn -0.0017 0.0560 -0.9984
vn 0.0038 0.0291 -0.9996
vn 0.0071 0.0104 -0.9999
vn 0.0072 0.0040 -1.0000
vn 0.0081 0.0009 -1.0000
vn 0.0088 -0.0088 -0.9999
vn 0.0101 -0.0147 -0.9998
vn 0.0104 -0.0238 -0.9997
vn 0.0095 -0.0274 -0.9996
vn 0.0087 -0.0349 -0.9994
vn 0.0071 -0.0418 -0.9991
vn 0.0062 -0.0471 -0.9989
vn 0.0052 -0.0527 -0.9986
vn -0.0053 -0.0527 -0.9986
vn -0.0044 -0.0512 -0.9987
vn -0.0072 -0.0450 -0.9990
vn -0.0072 -0.0417 -0.9991
vn -0.0091 -0.0320 -0.9994
vn -0.0088 -0.0349 -0.9994
vn -0.0096 -0.0274 -0.9996
vn -0.0105 -0.0237 -0.9997
vn -0.0102 -0.0146 -0.9998
vn -0.0089 -0.0086 -0.9999
vn -0.0082 0.0009 -1.0000
vn -0.0073 0.0040 -1.0000
vn -0.0072 0.0104 -0.9999
vn -0.0039 0.0290 -0.9996
vn 0.0016 0.0559 -0.9984
vn 0.0050 -0.0487 0.9988
vn 0.0041 -0.0472 0.9989
vn 0.0068 -0.0411 0.9991
vn 0.0067 -0.0380 0.9993
vn 0.0085 -0.0286 0.9996
vn 0.0082 -0.0314 0.9995
vn 0.0089 -0.0241 0.9997
vn 0.0097 -0.0206 0.9997
vn 0.0093 -0.0119 0.9999
vn 0.0080 -0.0063 0.9999
vn 0.0072 0.0029 1.0000
vn 0.0063 0.0057 1.0000
vn 0.0061 0.0119 0.9999
vn 0.0027 0.0296 0.9996
vn -0.0030 0.0551 0.9985
vn 0.1924 -0.9809 0.0273
vn 0.1436 -0.9894 0.0225
vn 0.1022 -0.9946 0.0187
vn 0.0654 -0.9977 0.0159
vn 0.0313 -0.9994 0.0142
vn -0.0015 -0.9999 0.0136
vn -0.0343 -0.9993 0.0140
vn -0.0684 -0.9975 0.0155
vn -0.1052 -0.9943 0.0181
vn -0.1467 -0.9889 0.0218
vn -0.1956 -0.9803 0.0264
vn 0.2349 -0.9705 0.0545
vn 0.2593 -0.9641 0.0576
vn 0.2800 -0.9581 0.0605
vn 0.2986 -0.9523 0.0628
vn 0.3160 -0.9466 0.0646
vn 0.3330 -0.9407 0.0655
vn 0.3502 -0.9344 0.0657
vn 0.3684 -0.9274 0.0649
vn 0.3886 -0.9193 0.0631
vn 0.4118 -0.9093 0.0602
vn 0.4402 -0.8961 0.0560
vn -0.4450 -0.8943 0.0462
vn -0.4164 -0.9077 0.0512
vn -0.3929 -0.9179 0.0549
vn -0.3727 -0.9262 0.0574
vn -0.3543 -0.9333 0.0588
vn -0.3370 -0.9396 0.0593
vn -0.3199 -0.9456 0.0589
vn -0.3024 -0.9514 0.0578
vn -0.2837 -0.9573 0.0560
vn -0.2628 -0.9634 0.0538
vn -0.2383 -0.9698 0.0512
vn 0.4694 -0.8817 0.0486
vn 0.4897 -0.8707 0.0447
vn 0.5070 -0.8610 0.0405
vn 0.5224 -0.8520 0.0361
vn 0.5367 -0.8432 0.0315
vn 0.5506 -0.8344 0.0268
vn 0.5646 -0.8251 0.0220
vn 0.5794 -0.8149 0.0171
vn 0.5955 -0.8032 0.0122
vn 0.6141 -0.7892 0.0072
vn 0.6366 -0.7712 0.0020
vn -0.6442 -0.7647 -0.0179
vn -0.6214 -0.7834 -0.0116
vn -0.6026 -0.7981 -0.0056
vn -0.5861 -0.8102 0.0004
vn -0.5712 -0.8208 0.0062
vn -0.5569 -0.8305 0.0119
vn -0.5428 -0.8397 0.0175
vn -0.5283 -0.8488 0.0229
vn -0.5126 -0.8582 0.0281
vn -0.4951 -0.8682 0.0332
vn -0.4744 -0.8795 0.0379
usemtl Material.001
s 1
f 96/53/7 66/54/7 67/55/7 98/56/7
f 65/57/8 64/58/8 53/59/8 56/60/8 43/61/8
f 154/62/9 153/63/9 167/64/9 169/65/9 60/66/9 48/67/9
f 153/68/10 137/69/10 181/70/10 167/71/10
f 82/72/9 80/73/9 51/74/9 62/75/9
f 91/76/11 103/77/11 105/78/11 99/79/11 101/80/11 93/81/11
f 86/82/8 85/83/8 63/84/8 65/57/8 43/61/8 42/85/8
f 131/86/12 70/87/12 54/88/12 245/89/13 247/90/14
f 55/91/8 54/88/8 70/87/8 72/92/15 44/93/8
f 46/94/16 45/95/16 117/96/16 113/97/16
f 119/98/8 114/99/8 118/100/8 122/101/8
f 168/102/17 180/103/17 246/104/18 219/105/19
f 47/106/20 52/107/20 120/108/20 112/109/20
f 90/110/21 87/111/21 67/55/21 68/112/21
f 94/113/20 140/114/20 139/115/20 66/54/20 96/53/20
f 74/116/22 102/117/22 100/118/22 73/119/22
f 60/66/21 58/120/21 47/106/21 48/67/21
f 61/121/20 57/122/20 46/94/20 52/107/20
f 57/122/16 59/123/16 45/95/16 46/94/16
f 58/120/20 61/121/20 52/107/20 47/106/20
f 155/124/9 154/62/9 48/67/9 116/125/9 121/126/9
f 81/127/23 106/128/23 104/129/23 80/130/23
f 81/127/16 83/131/16 75/132/16 73/119/16
f 52/107/20 46/94/20 113/97/20 120/108/20
f 48/67/21 47/106/21 112/109/21 116/125/21
f 134/133/9 82/72/9 62/75/9 125/134/9
f 51/74/9 92/135/9 110/136/9 88/137/9
f 59/123/9 195/138/24 194/139/25 152/140/9 156/141/9 45/95/9
f 107/142/11 109/143/11 91/76/11 93/81/11 95/144/11 97/145/11
f 56/146/26 53/147/26 233/148/26 258/149/26
f 43/61/27 56/60/27 258/150/28 260/151/29 126/152/27
f 221/153/30 220/154/31 55/91/32 44/93/32 127/155/32
f 139/115/20 138/156/20 206/157/33 208/158/34 69/159/20 66/54/20
f 208/158/35 207/160/35 232/161/36 234/162/37 129/163/35 69/159/35
f 194/164/38 206/165/38 138/166/38 152/167/38
f 45/95/9 156/141/9 155/124/9 121/126/9 117/96/9
f 133/168/16 77/169/16 71/170/16 132/171/16
f 259/172/39 232/173/40 207/174/41 193/175/41
f 124/176/20 128/177/20 61/121/20 58/120/20
f 123/178/16 126/152/16 59/123/16 57/122/16
f 128/177/20 123/178/20 57/122/20 61/121/20
f 127/155/21 124/176/21 58/120/21 60/66/21
f 135/179/21 90/110/21 68/112/21 130/180/21
f 49/181/8 84/182/8 86/82/8 42/85/8 50/183/8
f 102/117/20 74/116/20 141/184/20 140/114/20 94/113/20
f 63/84/8 64/185/8 65/57/8
f 129/163/7 64/58/7 63/84/7 130/180/7
f 87/111/21 108/186/21 98/56/21 67/55/21
f 66/54/7 69/159/7 68/112/7 67/55/7
f 62/75/9 51/74/9 88/137/9 89/187/9
f 70/87/8 71/170/8 72/92/15
f 106/128/16 81/127/16 73/119/16 100/118/16
f 76/188/22 74/116/22 73/119/22 75/132/22
f 131/86/22 76/188/22 75/132/22 132/171/22
f 79/189/8 78/190/8 49/181/8 50/183/8 41/191/8
f 77/169/8 78/192/8 79/189/8
f 108/186/42 87/111/42 88/193/42 110/194/42
f 83/131/23 81/127/23 80/130/23 82/195/23
f 133/168/23 83/131/23 82/195/23 134/196/23
f 72/92/15 71/170/8 77/169/8 79/189/8 41/191/8 44/93/8
f 84/182/8 85/197/8 86/82/8
f 135/179/42 85/83/42 84/198/42 136/199/42
f 87/111/42 90/110/42 89/200/42 88/193/42
f 125/134/9 62/75/9 89/187/9 136/201/9
f 97/145/43 95/144/43 96/53/43 98/56/43
f 94/113/44 96/53/44 95/144/44 93/81/44
f 101/80/45 99/79/45 100/118/45 102/117/45
f 93/81/44 101/80/44 102/117/44 94/113/44
f 105/78/46 103/77/46 104/129/46 106/128/46
f 103/77/47 91/76/47 92/202/47 104/203/47
f 106/128/48 100/118/48 99/79/48 105/78/48
f 109/143/49 107/142/49 108/186/49 110/194/49
f 107/142/50 97/145/50 98/56/50 108/186/50
f 91/76/47 109/143/47 110/204/47 92/202/47
f 80/73/9 104/205/9 92/135/9 51/74/9
f 120/108/51 113/97/51 114/99/51 119/98/51
f 111/206/52 115/207/52 116/125/52 112/109/52
f 113/97/53 117/96/53 118/100/53 114/99/53
f 122/101/54 118/100/54 117/96/54 121/126/54
f 112/109/51 120/108/51 119/98/51 111/206/51
f 115/207/54 122/101/54 121/126/54 116/125/54
f 111/206/8 119/98/8 122/101/8 115/207/8
f 49/208/9 125/134/9 136/201/9 84/209/9
f 90/110/42 135/179/42 136/199/42 89/200/42
f 77/169/23 133/168/23 134/196/23 78/210/23
f 70/87/22 131/86/22 132/171/22 71/170/22
f 69/159/7 129/163/7 130/180/7 68/112/7
f 85/83/21 135/179/21 130/180/21 63/84/21
f 44/93/21 41/191/21 124/176/21 127/155/21
f 50/183/20 42/85/20 123/178/20 128/177/20
f 42/85/16 43/61/16 126/152/16 123/178/16
f 41/191/20 50/183/20 128/177/20 124/176/20
f 83/131/16 133/168/16 132/171/16 75/132/16
f 234/162/55 233/211/56 53/59/57 64/58/57 129/163/57
f 169/65/58 168/212/59 219/213/60 221/153/61 127/155/62 60/66/62
f 126/152/63 260/151/64 259/214/65 193/215/66 195/138/67 59/123/63
f 76/188/68 131/86/68 247/90/69 246/216/70 180/217/68 182/218/68
f 78/219/9 134/133/9 125/134/9 49/208/9
f 220/220/71 245/221/71 54/222/71 55/223/71
f 137/69/20 142/224/20 143/225/20 144/226/20 145/227/20 146/228/20 147/229/20 148/230/20 149/231/20 150/232/20 151/233/20 138/234/20 139/235/20 140/236/20 141/237/20
f 152/167/9 157/238/9 158/239/9 159/240/9 160/241/9 161/242/9 162/243/9 163/244/9 164/245/9 165/246/9 166/247/9 153/248/9 154/249/9 155/250/9 156/251/9
f 167/71/72 170/252/73 169/253/58
f 170/252/73 171/254/74 169/253/58
f 171/254/74 172/255/75 169/253/58
f 172/255/75 173/256/76 169/253/58
f 173/256/76 174/257/77 169/253/58
f 174/257/77 175/258/78 169/253/58
f 175/258/78 176/259/79 169/253/58
f 176/259/79 177/260/80 169/253/58
f 177/260/80 178/261/81 169/253/58
f 178/261/81 179/262/82 169/253/58
f 179/262/82 168/263/59 169/253/58
f 180/103/83 183/264/84 182/265/85
f 183/264/84 184/266/86 182/265/85
f 184/266/86 185/267/87 182/265/85
f 185/267/87 186/268/88 182/265/85
f 186/268/88 187/269/89 182/265/85
f 187/269/89 188/270/90 182/265/85
f 188/270/91 189/271/92 182/265/93
f 189/271/92 190/272/94 182/265/93
f 190/272/94 191/273/95 182/265/93
f 191/273/95 192/274/96 182/265/93
f 192/274/97 181/275/98 182/265/99
f 193/215/66 196/276/100 195/138/67
f 196/276/100 197/277/101 195/138/67
f 197/277/101 198/278/102 195/138/67
f 198/278/102 199/279/103 195/138/67
f 199/279/103 200/280/104 195/138/67
f 200/280/104 201/281/105 195/138/67
f 201/281/105 202/282/106 195/138/67
f 202/282/106 203/283/107 195/138/67
f 203/283/107 204/284/108 195/138/67
f 204/284/109 205/285/110 195/138/24
f 205/285/110 194/286/25 195/138/24
f 206/157/33 209/287/111 208/158/34
f 209/287/112 210/288/113 208/158/114
f 210/288/113 211/289/115 208/158/114
f 211/289/116 212/290/117 208/158/118
f 212/290/117 213/291/119 208/158/118
f 213/291/119 214/292/120 208/158/118
f 214/292/120 215/293/121 208/158/118
f 215/293/121 216/294/122 208/158/118
f 216/294/122 217/295/123 208/158/118
f 217/295/123 218/296/124 208/158/118
f 218/296/124 207/297/125 208/158/118
f 219/105/60 222/298/126 221/299/61
f 222/298/127 223/300/127 221/299/127
f 223/300/128 224/301/129 221/299/130
f 224/301/129 225/302/131 221/299/130
f 225/302/132 226/303/133 221/299/134
f 226/303/133 227/304/135 221/299/134
f 227/304/135 228/305/136 221/299/134
f 228/305/137 229/306/138 221/299/30
f 229/306/138 230/307/139 221/299/30
f 230/307/139 231/308/140 221/299/30
f 231/308/140 220/309/31 221/299/30
f 232/161/36 235/310/141 234/162/37
f 235/310/142 236/311/142 234/162/142
f 236/311/143 237/312/144 234/162/145
f 237/312/144 238/313/146 234/162/145
f 238/313/146 239/314/147 234/162/145
f 239/314/148 240/315/149 234/162/55
f 240/315/149 241/316/150 234/162/55
f 241/316/150 242/317/151 234/162/55
f 242/317/151 243/318/152 234/162/55
f 243/318/152 244/319/153 234/162/55
f 244/319/153 233/320/56 234/162/55
f 245/221/13 248/321/154 247/322/14
f 248/321/154 249/323/155 247/322/14
f 249/323/156 250/324/157 247/322/158
f 250/324/157 251/325/159 247/322/158
f 251/325/159 252/326/160 247/322/158
f 252/326/160 253/327/161 247/322/158
f 253/327/162 254/328/163 247/322/164
f 254/328/163 255/329/165 247/322/164
f 255/329/165 256/330/166 247/322/164
f 256/330/167 257/331/167 247/322/167
f 257/331/168 246/332/70 247/322/69
f 258/150/28 261/333/169 260/151/29
f 261/333/169 262/334/170 260/151/29
f 262/334/171 263/335/172 260/151/173
f 263/335/172 264/336/174 260/151/173
f 264/336/174 265/337/175 260/151/173
f 265/337/175 266/338/176 260/151/173
f 266/338/177 267/339/178 260/151/179
f 267/339/178 268/340/180 260/151/179
f 268/340/180 269/341/181 260/151/179
f 269/341/182 270/342/182 260/151/182
f 270/342/183 259/343/65 260/151/64
f 152/167/184 138/166/184 151/344/184 157/238/184
f 157/238/185 151/344/185 150/345/185 158/239/185
f 158/239/186 150/345/186 149/346/186 159/240/186
f 159/240/187 149/346/187 148/347/187 160/241/187
f 160/241/188 148/347/188 147/348/188 161/349/188
f 161/349/189 147/348/189 146/350/189 162/243/189
f 162/351/190 146/352/190 145/227/190 163/353/190
f 163/353/191 145/227/191 144/226/191 164/354/191
f 164/354/192 144/226/192 143/225/192 165/355/192
f 165/355/193 143/225/193 142/224/193 166/356/193
f 166/356/194 142/224/194 137/69/194 153/68/194
f 206/165/195 194/164/195 205/357/195 209/358/195
f 209/358/196 205/357/196 204/359/196 210/360/196
f 210/360/197 204/359/197 203/361/197 211/362/197
f 211/362/198 203/361/198 202/363/198 212/364/198
f 212/364/199 202/363/199 201/365/199 213/366/199
f 213/366/200 201/365/200 200/367/200 214/368/200
f 214/368/201 200/367/201 199/369/201 215/370/201
f 215/370/202 199/369/202 198/371/202 216/372/202
f 216/372/203 198/371/203 197/373/203 217/374/203
f 217/374/204 197/373/204 196/375/204 218/376/204
f 218/376/205 196/375/205 193/175/205 207/174/205
f 180/103/206 168/102/206 179/377/206 183/264/206
f 183/264/207 179/377/207 178/378/207 184/266/207
f 184/266/208 178/378/208 177/379/208 185/267/208
f 185/267/209 177/379/209 176/380/209 186/268/209
f 186/268/210 176/380/210 175/381/210 187/382/210
f 187/382/211 175/381/211 174/383/211 188/384/211
f 188/384/212 174/383/212 173/256/212 189/385/212
f 189/385/213 173/256/213 172/255/213 190/386/213
f 190/386/214 172/255/214 171/254/214 191/387/214
f 191/387/215 171/254/215 170/252/215 192/388/215
f 192/388/216 170/252/216 167/71/216 181/70/216
f 232/173/40 259/172/39 270/389/217 235/390/217
f 235/390/218 270/389/218 269/391/218 236/392/218
f 236/392/219 269/391/219 268/393/219 237/394/219
f 237/394/220 268/393/220 267/395/220 238/396/220
f 238/396/221 267/395/221 266/397/221 239/398/221
f 239/398/222 266/397/222 265/399/222 240/400/222
f 240/400/223 265/399/223 264/401/223 241/402/223
f 241/402/224 264/401/224 263/403/224 242/404/224
f 242/404/225 263/403/225 262/405/225 243/406/225
f 243/406/226 262/405/226 261/407/226 244/408/226
f 244/408/227 261/407/227 258/149/227 233/148/227
f 245/221/228 220/220/228 231/409/228 248/321/228
f 248/321/229 231/409/229 230/410/229 249/323/229
f 249/323/230 230/410/230 229/411/230 250/324/230
f 250/324/231 229/411/231 228/412/231 251/325/231
f 251/325/232 228/412/232 227/413/232 252/414/232
f 252/414/233 227/413/233 226/415/233 253/416/233
f 253/416/234 226/415/234 225/302/234 254/417/234
f 254/417/235 225/302/235 224/301/235 255/418/235
f 255/418/236 224/301/236 223/300/236 256/419/236
f 256/419/237 223/300/237 222/298/237 257/420/237
f 257/420/238 222/298/238 219/105/19 246/104/18
f 74/116/20 76/188/20 182/218/99 181/421/98 137/422/20 141/184/20
o Legs_Cube.003
v -1.678423 -0.096809 1.548662
v -1.770523 -0.149897 1.635677
v -1.678423 2.190377 1.548662
v -1.770523 2.243464 1.635677
v -1.678423 -0.096809 -1.538134
v -1.770523 -0.149897 -1.625149
v -1.678423 2.190376 -1.538134
v -1.770523 2.243464 -1.625149
v 1.686684 -0.096809 1.548662
v 1.778784 -0.149897 1.635677
v 1.686684 2.190377 1.548662
v 1.778784 2.243464 1.635677
v 1.686684 -0.096809 -1.538134
v 1.778784 -0.149897 -1.625149
v 1.686684 2.190376 -1.538134
v 1.778784 2.243464 -1.625149
v -1.724473 -0.077377 1.516812
v -1.724473 2.170945 1.516812
v -1.724473 2.170944 -1.506285
v -1.724473 -0.077378 -1.506284
v -1.644711 -0.077378 -1.581642
v -1.644711 2.170944 -1.581642
v 1.652972 2.170944 -1.581642
v 1.652972 -0.077378 -1.581642
v 1.732734 -0.077378 -1.506284
v 1.732734 2.170944 -1.506285
v 1.732734 2.170945 1.516812
v 1.732734 -0.077377 1.516812
v 1.652972 -0.123400 1.592170
v 1.652972 2.170945 1.592169
v -1.644711 2.170945 1.592169
v -1.644711 -0.122912 1.592170
v -1.644711 -0.123353 -1.506284
v 1.652972 -0.123353 -1.506284
v 1.652972 -0.123353 1.516812
v -1.644711 -0.123353 1.516812
v 1.652972 2.216920 -1.506285
v -1.644711 2.216920 -1.506285
v -1.644711 2.216921 1.516812
v 1.652972 2.216921 1.516812
v -1.678423 -0.096809 1.547440
v -1.644711 -0.122912 1.514879
v 1.686684 -0.096809 1.473184
v 1.652972 -0.123400 1.516692
vt 0.375000 0.000000
vt 0.625000 0.000000
vt 0.625000 0.000000
vt 0.375000 0.000000
vt 0.375000 0.000000
vt 0.625000 0.000000
vt 0.625000 0.250000
vt 0.625000 0.250000
vt 0.625000 0.250000
vt 0.375000 0.250000
vt 0.375000 0.250000
vt 0.375000 0.250000
vt 0.375000 0.250000
vt 0.625000 0.250000
vt 0.625000 0.500000
vt 0.625000 0.500000
vt 0.625000 0.500000
vt 0.375000 0.500000
vt 0.375000 0.500000
vt 0.375000 0.500000
vt 0.375000 0.500000
vt 0.625000 0.500000
vt 0.625000 0.750000
vt 0.625000 0.750000
vt 0.625000 0.750000
vt 0.375000 0.750000
vt 0.375000 0.750000
vt 0.375000 0.750000
vt 0.375000 0.750000
vt 0.625000 0.750000
vt 0.625000 1.000000
vt 0.625000 1.000000
vt 0.625000 1.000000
vt 0.375000 1.000000
vt 0.375000 1.000000
vt 0.375000 1.000000
vt 0.125000 0.500000
vt 0.375000 0.500000
vt 0.125000 0.500000
vt 0.125000 0.500000
vt 0.375000 0.750000
vt 0.125000 0.750000
vt 0.125000 0.750000
vt 0.125000 0.750000
vt 0.625000 0.500000
vt 0.875000 0.500000
vt 0.875000 0.500000
vt 0.875000 0.500000
vt 0.875000 0.750000
vt 0.875000 0.750000
vt 0.875000 0.750000
vt 0.625000 0.750000
vt 0.375000 1.000000
vt 0.375000 1.000000
vt 0.375000 0.750000
vt 0.375000 0.750000
vn 0.5688 -0.0000 -0.8225
vn -0.9325 -0.0000 -0.3613
vn 0.3888 -0.9213 0.0000
vn -0.8442 -0.5361 0.0000
vn 0.5688 0.0000 0.8225
vn -0.9325 0.0000 0.3613
vn 0.3888 0.9213 -0.0000
vn -0.8442 0.5361 -0.0000
vn 0.7905 0.0000 0.6125
vn 0.3268 -0.0000 -0.9451
vn 0.0000 -0.9131 0.4078
vn 0.0000 -0.5145 -0.8575
vn -0.7905 0.0000 0.6125
vn -0.3268 -0.0000 -0.9451
vn 0.0000 0.9131 0.4078
vn 0.0000 0.5145 -0.8575
vn -0.5688 0.0000 0.8225
vn 0.9325 0.0000 0.3613
vn -0.3888 -0.9213 0.0000
vn 0.8442 -0.5361 0.0000
vn -0.5688 -0.0000 -0.8225
vn 0.9325 -0.0000 -0.3613
vn -0.3888 0.9213 -0.0000
vn 0.8442 0.5361 -0.0000
vn -0.7905 -0.0000 -0.6125
vn -0.3268 0.0000 0.9451
vn 0.0000 -0.9131 -0.4078
vn 0.0000 -0.5145 0.8575
vn 0.7905 -0.0000 -0.6125
vn 0.3268 0.0000 0.9451
vn 0.0000 0.7682 0.6402
vn 0.0000 -0.9760 0.2179
vn -0.6186 0.7857 -0.0000
vn -0.2064 -0.9785 0.0000
vn 0.6186 0.7857 -0.0000
vn 0.2064 -0.9785 0.0000
vn 0.0000 -0.7682 0.6402
vn 0.0000 0.9760 0.2179
vn 0.6186 -0.7857 0.0000
vn 0.2064 0.9785 -0.0000
vn 0.0000 -0.7682 -0.6402
vn 0.0000 0.9760 -0.2179
vn -0.6186 -0.7857 0.0000
vn -0.2064 0.9785 -0.0000
vn 0.6122 0.7907 0.0000
vn 0.2150 -0.9766 0.0057
vn -0.6193 0.7851 0.0000
vn -0.2055 -0.9786 -0.0006
usemtl Material.002
s 1
f 287/423/239 288/424/239 273/425/239 271/426/239
f 288/424/240 287/423/240 272/427/240 274/428/240
f 288/424/241 289/429/241 277/430/241 273/425/241
f 289/429/242 288/424/242 274/428/242 278/431/242
f 289/429/243 290/432/243 275/433/243 277/430/243
f 290/432/244 289/429/244 278/431/244 276/434/244
f 290/432/245 287/423/245 271/426/245 275/433/245
f 287/423/246 290/432/246 276/434/246 272/427/246
f 291/435/247 292/436/247 277/430/247 275/433/247
f 292/436/248 291/435/248 276/434/248 278/431/248
f 292/436/249 293/437/249 285/438/249 277/430/249
f 293/437/250 292/436/250 278/431/250 286/439/250
f 293/437/251 294/440/251 283/441/251 285/438/251
f 294/440/252 293/437/252 286/439/252 284/442/252
f 294/440/253 291/435/253 275/433/253 283/441/253
f 291/435/254 294/440/254 284/442/254 276/434/254
f 295/443/255 296/444/255 285/438/255 283/441/255
f 296/444/256 295/443/256 284/442/256 286/439/256
f 296/444/257 297/445/257 281/446/257 285/438/257
f 297/445/258 296/444/258 286/439/258 282/447/258
f 297/445/259 298/448/259 279/449/259 281/446/259
f 298/448/260 297/445/260 282/447/260 280/450/260
f 298/448/261 295/443/261 283/441/261 279/449/261
f 295/443/262 298/448/262 280/450/262 284/442/262
f 299/451/263 300/452/263 281/446/263 279/449/263
f 300/452/264 299/451/264 280/450/264 282/447/264
f 300/452/265 301/453/265 273/454/265 281/446/265
f 301/453/266 300/452/266 282/447/266 274/455/266
f 301/453/267 302/456/267 271/457/267 273/454/267
f 302/456/268 301/453/268 274/455/268 272/458/268
f 303/459/269 304/460/269 283/441/269 275/461/269
f 304/460/270 303/459/270 276/462/270 284/442/270
f 304/460/271 305/463/271 279/449/271 283/441/271
f 305/463/272 304/460/272 284/442/272 280/450/272
f 306/464/273 303/459/273 275/461/273 271/465/273
f 303/459/274 306/464/274 272/466/274 276/462/274
f 307/467/275 308/468/275 277/469/275 285/438/275
f 308/468/276 307/467/276 286/439/276 278/470/276
f 308/468/277 309/471/277 273/472/277 277/469/277
f 309/471/278 308/468/278 278/470/278 274/473/278
f 309/471/279 310/474/279 281/446/279 273/472/279
f 310/474/280 309/471/280 274/473/280 282/447/280
f 310/474/281 307/467/281 285/438/281 281/446/281
f 307/467/282 310/474/282 282/447/282 286/439/282
f 271/457/283 302/456/283 312/475/283 311/476/283
f 302/456/284 272/466/284 306/464/284 312/475/284
f 299/451/285 279/449/285 313/477/285 314/478/285
f 299/451/286 314/478/286 305/463/286 280/450/286
